<svg xmlns="http://www.w3.org/2000/svg" viewBox="0 0 1367.33 600"><defs><style>.cls-1,.cls-2,.cls-3,.cls-4{opacity:0.1;fill:none;}.cls-2{stroke:#eabb15;}.cls-2,.cls-3,.cls-4{stroke-linecap:round;stroke-linejoin:round;stroke-width:3px;}.cls-3{stroke:#c89bee;}.cls-4{stroke:#e0c4ea;}</style></defs><title>pattern</title><g id="Layer_2" data-name="Layer 2"><g id="Layer_1-2" data-name="Layer 1"><rect class="cls-1" x="1.33" width="1366" height="600"/><polyline class="cls-2" points="128.7 17 131.64 29.62 142.59 26.24 145.53 38.86 156.48 35.48"/><polyline class="cls-3" points="234.19 371.62 237.13 384.24 248.08 380.86 251.02 393.48 261.97 390.1"/><polyline class="cls-4" points="811.05 215.64 813.99 228.26 824.94 224.88 827.88 237.5 838.83 234.12"/><ellipse class="cls-3" cx="178.47" cy="167.95" rx="5.01" ry="5"/><circle class="cls-2" cx="622.33" cy="336.5" r="5"/><circle class="cls-2" cx="357.33" cy="253.5" r="5"/><polygon class="cls-2" points="347.47 78.97 352.47 88.97 342.47 88.97 347.47 78.97"/><rect class="cls-4" x="540.33" y="188.5" width="10" height="10"/><rect class="cls-4" x="1.5" y="148" width="10" height="10"/><polygon class="cls-2" points="51.85 325.45 54.5 330.3 59.35 332.95 54.5 335.6 51.85 340.45 49.2 335.6 44.35 332.95 49.2 330.3 51.85 325.45"/><polygon class="cls-2" points="1001.85 375.45 1004.5 380.3 1009.35 382.95 1004.5 385.6 1001.85 390.45 999.2 385.6 994.35 382.95 999.2 380.3 1001.85 375.45"/><polygon class="cls-4" points="598.45 60.05 601.11 64.9 605.95 67.55 601.11 70.2 598.45 75.05 595.8 70.2 590.95 67.55 595.8 64.9 598.45 60.05"/><polyline class="cls-2" points="810.89 6 813.83 18.62 824.8 15.24 827.74 27.86 838.71 24.48"/><polyline class="cls-4" points="1325.01 226.64 1327.95 239.26 1338.92 235.88 1341.86 248.5 1352.83 245.12"/><circle class="cls-3" cx="1104.33" cy="271.5" r="5"/><circle class="cls-3" cx="1130.31" cy="45.84" r="5"/><circle class="cls-2" cx="1270" cy="529.46" r="5"/><circle class="cls-2" cx="667.33" cy="574.5" r="5"/><polygon class="cls-2" points="34.85 531.45 37.5 536.3 42.35 538.95 37.5 541.6 34.85 546.45 32.2 541.6 27.35 538.95 32.2 536.3 34.85 531.45"/><polyline class="cls-3" points="987.58 527.62 990.52 540.24 1001.49 536.86 1004.43 549.48 1015.4 546.1"/><polygon class="cls-2" points="1037 137.5 1042 147.5 1032 147.5 1037 137.5"/><polygon class="cls-2" points="485 468.5 490 478.5 480 478.5 485 468.5"/><rect class="cls-4" x="1259.56" y="326.91" width="10" height="10"/><rect class="cls-4" x="262.33" y="526.5" width="10" height="10"/><rect class="cls-4" x="792.33" y="463.5" width="10" height="10"/><polygon class="cls-4" points="1295.39 86.05 1298.04 90.9 1302.89 93.55 1298.04 96.2 1295.39 101.05 1292.74 96.2 1287.89 93.55 1292.74 90.9 1295.39 86.05"/></g></g></svg>