<svg xmlns="http://www.w3.org/2000/svg" viewBox="0 0 1367.33 600"><defs><style>.cls-1,.cls-2,.cls-3,.cls-4{opacity:.1;fill:none}.cls-2{stroke:#eabb15}.cls-2,.cls-3,.cls-4{stroke-linecap:round;stroke-linejoin:round;stroke-width:3px}.cls-3{stroke:#c89bee}.cls-4{stroke:#e0c4ea}</style></defs><title>pattern</title><g id="Layer_2" data-name="Layer 2"><g id="Layer_1-2" data-name="Layer 1"><path class="cls-1" d="M1.33 0h1366v600H1.33z"/><path class="cls-2" d="M128.7 17l2.94 12.62 10.95-3.38 2.94 12.62 10.95-3.38"/><path class="cls-3" d="M234.19 371.62l2.94 12.62 10.95-3.38 2.94 12.62 10.95-3.38"/><path class="cls-4" d="M811.05 215.64l2.94 12.62 10.95-3.38 2.94 12.62 10.95-3.38"/><ellipse class="cls-3" cx="178.47" cy="167.95" rx="5.01" ry="5"/><circle class="cls-2" cx="622.33" cy="336.5" r="5"/><circle class="cls-2" cx="357.33" cy="253.5" r="5"/><path class="cls-2" d="M347.47 78.97l5 10h-10l5-10z"/><path class="cls-4" d="M540.33 188.5h10v10h-10zM1.5 148h10v10h-10z"/><path class="cls-2" d="M51.85 325.45l2.65 4.85 4.85 2.65-4.85 2.65-2.65 4.85-2.65-4.85-4.85-2.65 4.85-2.65 2.65-4.85zm950 50l2.65 4.85 4.85 2.65-4.85 2.65-2.65 4.85-2.65-4.85-4.85-2.65 4.85-2.65 2.65-4.85z"/><path class="cls-4" d="M598.45 60.05l2.66 4.85 4.84 2.65-4.84 2.65-2.66 4.85-2.65-4.85-4.85-2.65 4.85-2.65 2.65-4.85z"/><path class="cls-2" d="M810.89 6l2.94 12.62 10.97-3.38 2.94 12.62 10.97-3.38"/><path class="cls-4" d="M1325.01 226.64l2.94 12.62 10.97-3.38 2.94 12.62 10.97-3.38"/><circle class="cls-3" cx="1104.33" cy="271.5" r="5"/><circle class="cls-3" cx="1130.31" cy="45.84" r="5"/><circle class="cls-2" cx="1270" cy="529.46" r="5"/><circle class="cls-2" cx="667.33" cy="574.5" r="5"/><path class="cls-2" d="M34.85 531.45l2.65 4.85 4.85 2.65-4.85 2.65-2.65 4.85-2.65-4.85-4.85-2.65 4.85-2.65 2.65-4.85z"/><path class="cls-3" d="M987.58 527.62l2.94 12.62 10.97-3.38 2.94 12.62 10.97-3.38"/><path class="cls-2" d="M1037 137.5l5 10h-10l5-10zm-552 331l5 10h-10l5-10z"/><path class="cls-4" d="M1259.56 326.91h10v10h-10zM262.33 526.5h10v10h-10zm530-63h10v10h-10zm503.06-377.45l2.65 4.85 4.85 2.65-4.85 2.65-2.65 4.85-2.65-4.85-4.85-2.65 4.85-2.65 2.65-4.85z"/></g></g></svg>